<svg data-v-0dd9719b="" version="1.0" xmlns="http://www.w3.org/2000/svg" xmlns:xlink="http://www.w3.org/1999/xlink" width="100%" height="100%" viewBox="0 0 340.000000 250.000000" preserveAspectRatio="xMidYMid meet" color-interpolation-filters="sRGB" style="margin: auto;"> <rect data-v-0dd9719b="" x="0" y="0" width="100%" height="100%" fill="#fff" fill-opacity="1" class="background"></rect> <rect data-v-0dd9719b="" x="0" y="0" width="100%" height="100%" fill="url(#watermark)" fill-opacity="1" class="watermarklayer"></rect> <g data-v-0dd9719b="" fill="#333" class="icon-text-wrapper icon-svg-group iconsvg" transform="translate(48.95500183105469,96.37874984741211)"><g class="iconsvg-imagesvg" transform="translate(0,1.2891368865966797)"><g><rect fill="#333" fill-opacity="0" stroke-width="2" x="0" y="0" width="60" height="54.66422499795009" class="image-rect"></rect> <svg x="0" y="0" width="60" height="54.66422499795009" filtersec="colorsb9349764656" class="image-svg-svg primary" style="overflow: visible;"><svg xmlns="http://www.w3.org/2000/svg" viewBox="-0.0641925185918808 -0.006150266155600548 68.47882843017578 62.38897705078125"><defs><linearGradient id="a23ce0d8a-1cf9-4be1-80ff-af0296caa6f9" y1="31.18" x2="68.4" y2="31.18" gradientUnits="userSpaceOnUse"><stop offset="0" stop-color="#22bbfe"></stop><stop offset=".48" stop-color="#812eff"></stop><stop offset=".99" stop-color="#f95595"></stop></linearGradient></defs><path d="M54.61 60.6a14.24 14.24 0 0 1-7.91-2.33c-3.62-2.09-7.28-4.13-10.86-6.3a2.73 2.73 0 0 0-3.23 0c-5.58 3.3-11.24 6.47-16.82 9.76a3.39 3.39 0 0 1-4 0C8.45 59.66 5 57.77 1.63 55.85c-1.45-.81-1.48-1.38 0-2.19 2.8-1.49 5.49-3.11 8.21-4.66.82-.48 1.87-.78 1.91-2s-1.09-1.7-2-2.21c-2.46-1.45-4.93-2.9-7.46-4.23a3.88 3.88 0 0 1-2.33-4c.13-6.9 0-13.8.06-20.71 0-11.18 11.29-17.7 21-12.16q5.9 3.31 11.66 6.73a2.82 2.82 0 0 0 3.28 0C41.6 7.1 47.31 3.88 53 .55a3 3 0 0 1 3.48 0c3.4 2.05 6.83 4.06 10.3 6 1.6.89 1.22 1.45-.12 2.15-2.75 1.5-5.45 3.12-8.17 4.67C56 14.82 56 16 58.52 17.53s5.14 3.1 7.79 4.48a3.36 3.36 0 0 1 2.09 3.43c-.09 7.18 0 14.36-.05 21.55A13.58 13.58 0 0 1 54.61 60.6zm-.12-28.73c0-4.24.05-8.49 0-12.73 0-2.21-1.09-2.81-2.93-1.76-3 1.69-5.88 3.46-8.86 5.12a2.72 2.72 0 0 0-1.53 2.7q.06 5.94 0 11.9a2.7 2.7 0 0 0 1.51 2.7q5.1 2.85 10.12 5.85c1.39.83 1.76.49 1.74-1-.09-4.29-.05-8.53-.05-12.78zm-40.55-1.62V43c0 2.3 1.13 2.94 3.07 1.85 2.86-1.6 5.66-3.29 8.51-4.9a3.11 3.11 0 0 0 1.74-3c-.05-3.9 0-7.81 0-11.71a2.71 2.71 0 0 0-1.55-2.68q-5-2.79-9.95-5.74c-1.53-.93-1.89-.44-1.87 1.15.11 4.03.05 8.18.05 12.28z" fill="url(#a23ce0d8a-1cf9-4be1-80ff-af0296caa6f9)"></path></svg></svg> <!----></g></g> <g transform="translate(67,0)"><g data-gra="path-name" fill-rule="" class="tp-name iconsvg-namesvg" transform="translate(0,0)"><g transform="scale(1)"><g><path d="M9.95 5.17L9.4 3.55Q10.04 3.19 10.28 2.81 10.53 2.43 10.53 2.11L10.53 2.11 10.53-16.74 2.07-16.74 2.07-18.31 10.53-18.31 10.53-36.59 12.15-36.59 12.15-18.31 42.61-18.31 42.61-16.74 22.27-16.74Q25.02-9.99 29.61-5.89L29.61-5.89Q34.42-1.48 42.84 1.48L42.84 1.48 42.12 3.15Q37.8 1.53 34.4-0.43 31-2.38 28.44-4.77L28.44-4.77Q23.49-9.31 20.56-16.74L20.56-16.74 12.15-16.74 12.15 2.34Q13.46 1.84 15.1 1.15 16.74 0.45 18.4-0.34 20.07-1.13 21.67-1.89 23.27-2.65 24.48-3.28L24.48-3.28 24.7-1.53Q17.37 1.89 9.95 5.17L9.95 5.17ZM15.97-21.96L15.39-23.49Q17.82-24.43 20.54-25.72 23.27-27 26.37-28.66L26.37-28.66Q32.53-31.99 36.81-35.19L36.81-35.19 37.66-33.7Q33.25-30.46 27.04-27.18L27.04-27.18Q23.94-25.52 21.17-24.23 18.4-22.95 15.97-21.96L15.97-21.96ZM56.97 5.44L56.07 3.78Q61.2 1.8 65.25-0.27 69.3-2.34 72.27-4.63L72.27-4.63Q78.21-9.18 82.35-16.2L82.35-16.2 83.61-15.21Q79.2-7.83 73.22-3.19L73.22-3.19Q67.28 1.44 56.97 5.44L56.97 5.44ZM72.41-36.85L73.98-36.85 73.98-9.76 72.41-9.76 72.41-36.85ZM60.66-12.42L59.17-13.18Q60.16-15.03 61.16-17.1 62.14-19.17 63.18-21.55L63.18-21.55Q64.22-23.94 65.07-26.14 65.92-28.35 66.64-30.42L66.64-30.42 68.17-29.88Q67.41-27.72 66.53-25.54 65.66-23.36 64.62-20.93L64.62-20.93Q63.59-18.5 62.59-16.38 61.61-14.26 60.66-12.42L60.66-12.42ZM78.12-30.02L79.52-30.78Q80.5-29.43 81.65-27.52 82.8-25.61 84.19-23.18L84.19-23.18Q86.94-18.36 88.25-15.25L88.25-15.25 86.81-14.4Q86.17-15.97 85.19-17.98 84.19-19.98 82.8-22.41L82.8-22.41Q81.41-24.88 80.26-26.77 79.11-28.66 78.12-30.02L78.12-30.02ZM50.09 4.77L48.6 4Q49.37 2.7 50.33 0.7 51.3-1.3 52.24-3.51 53.19-5.71 54-7.88 54.81-10.04 55.3-11.65L55.3-11.65 56.74-11.03Q56.2-9.4 55.39-7.25 54.59-5.08 53.69-2.88 52.78-0.67 51.84 1.37 50.89 3.42 50.09 4.77L50.09 4.77ZM47.48-23.63L48.38-24.84Q49.27-24.25 50.49-23.38 51.7-22.5 52.94-21.53 54.18-20.56 55.28-19.64 56.38-18.72 57.06-18.09L57.06-18.09 55.94-16.83Q55.26-17.5 54.18-18.45 53.1-19.39 51.91-20.38 50.72-21.38 49.52-22.23 48.33-23.09 47.48-23.63L47.48-23.63ZM50.98-33.7L51.88-34.96Q52.78-34.38 54.02-33.48 55.26-32.58 56.5-31.63 57.73-30.69 58.77-29.83 59.8-28.98 60.34-28.48L60.34-28.48 59.35-27.22Q58.68-27.9 57.64-28.78 56.61-29.65 55.46-30.53 54.31-31.41 53.14-32.24 51.98-33.07 50.98-33.7L50.98-33.7ZM106.74 5.44L105.53 4.14Q108.77 1.62 111.13-0.88 113.49-3.38 114.97-5.98L114.97-5.98Q117.9-11.12 118.39-18.22L118.39-18.22 118.58-22.14 120.19-22.14 119.97-18.13Q119.97-18.04 119.95-17.93 119.92-17.82 119.92-17.73L119.92-17.73Q120.6-11.03 123.7-5.87 126.81-0.72 132.8 3.38L132.8 3.38 131.76 4.81Q126.72 1.21 123.62-3.1 120.51-7.42 119.25-12.91L119.25-12.91Q118.8-10.75 118.08-8.84 117.36-6.93 116.37-5.22L116.37-5.22Q113.31 0.14 106.74 5.44L106.74 5.44ZM93.28-17.82L92.34-19.35Q105.57-26.1 111.83-35.91L111.83-35.91 113.31-35.91Q116.41-31 121.21-26.89 126-22.77 132.62-19.35L132.62-19.35 131.81-17.82Q118.94-24.7 112.55-34.16L112.55-34.16Q109.39-29.38 104.6-25.36 99.81-21.33 93.28-17.82L93.28-17.82ZM93.56 4.77L92.25 3.6Q97.69-1.57 100.08-6.48L100.08-6.48Q102.56-11.43 102.96-18.4L102.96-18.4Q103-19.3 103.05-20.25 103.09-21.2 103.19-22.23L103.19-22.23 104.81-22.23Q104.72-21.2 104.67-20.2 104.63-19.21 104.58-18.31L104.58-18.31Q104.49-17.55 104.42-16.81 104.36-16.06 104.27-15.34L104.27-15.34Q105.08-14.54 106.06-13.41 107.06-12.29 108.31-10.8L108.31-10.8Q109.62-9.22 110.59-7.99 111.56-6.75 112.19-5.76L112.19-5.76 110.88-4.68Q110.25-5.71 109.37-6.91 108.5-8.1 107.19-9.67L107.19-9.67Q105.39-11.88 104-13.41L104-13.41Q103.59-11.29 103-9.4 102.42-7.51 101.61-5.8L101.61-5.8Q100.35-3.1 98.35-0.52 96.34 2.07 93.56 4.77L93.56 4.77ZM138.91 4.72L137.7 3.33Q142.69-0.32 146.29-4.23 149.9-8.14 152.1-12.38L152.1-12.38Q156.47-20.75 156.56-31.81L156.56-31.81Q156.6-32.89 156.6-33.98 156.6-35.05 156.6-36.13L156.6-36.13 158.22-36.13Q158.18-34.96 158.18-33.77 158.18-32.58 158.18-31.32L158.18-31.32Q158.18-31.09 158.15-30.82 158.13-30.55 158.13-30.33L158.13-30.33Q158.72-19.89 163.49-11.5 168.25-3.1 177.16 3.28L177.16 3.28 176.09 4.77Q160.69-6.66 157.5-23.4L157.5-23.4Q156.38-17.05 153.5-11.52L153.5-11.52Q148.95-2.75 138.91 4.72L138.91 4.72Z" transform="translate(-2.069999933242798, 36.849998474121094)"></path></g> <!----> <!----> <!----> <!----> <!----> <!----> <!----></g></g> <g data-gra="path-slogan" fill-rule="" class="tp-slogan iconsvg-slogansvg" fill="#333" transform="translate(5,48.28999710083008)"><rect x="0" height="1" y="3.9750003814697266" width="10.525001525878906"></rect> <rect height="1" y="3.9750003814697266" width="10.525001525878906" x="154.56499481201172"></rect> <g transform="translate(13.525001525878906,0)"><g transform="scale(1)"><path d="M8.06-6.05L8.06-6.05L6.94-6.05Q6.52-7.78 4.55-7.83L4.55-7.83Q1.83-7.69 1.73-4.36L1.73-4.36Q1.73-0.80 4.59-0.80L4.59-0.80Q6.56-0.84 7.03-3.19L7.03-3.19L8.16-3.19Q7.64 0.05 4.36 0.14L4.36 0.14Q0.61 0 0.52-4.31L0.52-4.31Q0.70-8.63 4.55-8.81L4.55-8.81Q7.59-8.72 8.06-6.05ZM10.69-5.06L15.19-5.06L15.19-8.58L16.36-8.58L16.36 0L15.19 0L15.19-3.98L10.69-3.98L10.69 0L9.52 0L9.52-8.58L10.69-8.58L10.69-5.06ZM23.81 0L22.97-2.48L19.50-2.48L18.61 0L17.44 0L20.67-8.58L21.98-8.58L25.08 0L23.81 0ZM21.23-7.31L19.88-3.52L22.55-3.52L21.28-7.31L21.23-7.31ZM27.52-8.58L31.83-1.64L31.83-8.58L32.95-8.58L32.95 0L31.64 0L27.28-6.94L27.23-6.94L27.23 0L26.11 0L26.11-8.58L27.52-8.58ZM41.16-3.61L38.53-3.61L38.53-4.59L42.28-4.59L42.28 0L41.53 0L41.25-1.08Q40.27 0.09 38.44 0.14L38.44 0.14Q36.70 0.14 35.77-0.75L35.77-0.75Q34.36-2.06 34.41-4.36L34.41-4.36Q34.73-8.63 38.48-8.81L38.48-8.81Q41.67-8.63 42.14-6L42.14-6L41.02-6Q40.55-7.78 38.44-7.83L38.44-7.83Q35.77-7.64 35.63-4.31L35.63-4.31Q35.63-0.75 38.48-0.75L38.48-0.75Q39.52-0.75 40.27-1.31L40.27-1.31Q41.20-2.06 41.16-3.61L41.16-3.61ZM50.34-6.09L50.34-6.09L49.27-6.09Q49.17-7.73 47.11-7.83L47.11-7.83Q45.19-7.78 45.19-6.33L45.19-6.33Q45.19-5.39 46.22-5.25L46.22-5.25L48.66-4.69Q50.58-4.22 50.58-2.34L50.58-2.34Q50.53 0.05 47.20 0.14L47.20 0.14Q45.38 0.14 44.63-0.61L44.63-0.61Q43.69-1.31 43.73-2.77L43.73-2.77L44.86-2.77Q44.91-0.80 47.20-0.75L47.20-0.75Q49.45-0.80 49.50-2.20L49.50-2.20Q49.69-3.38 47.63-3.75L47.63-3.75L45.84-4.13Q44.02-4.64 44.02-6.19L44.02-6.19Q44.16-8.72 47.02-8.81L47.02-8.81Q50.25-8.81 50.34-6.09ZM53.20-5.06L57.70-5.06L57.70-8.58L58.88-8.58L58.88 0L57.70 0L57.70-3.98L53.20-3.98L53.20 0L52.03 0L52.03-8.58L53.20-8.58L53.20-5.06ZM66.33 0L65.48-2.48L62.02-2.48L61.13 0L59.95 0L63.19-8.58L64.50-8.58L67.59 0L66.33 0ZM63.75-7.31L62.39-3.52L65.06-3.52L63.80-7.31L63.75-7.31ZM72.80-1.03L78.09-1.03L78.09 0L71.34 0L71.34-0.94L76.59-7.59L71.72-7.59L71.72-8.58L78.09-8.58L78.09-7.59L72.80-1.03ZM80.39-5.06L84.89-5.06L84.89-8.58L86.06-8.58L86.06 0L84.89 0L84.89-3.98L80.39-3.98L80.39 0L79.22 0L79.22-8.58L80.39-8.58L80.39-5.06ZM94.64-4.27L94.64-4.27Q94.45-7.64 91.64-7.83L91.64-7.83Q88.78-7.69 88.64-4.27L88.64-4.27Q88.78-0.94 91.64-0.80L91.64-0.80Q94.45-0.98 94.64-4.27ZM95.81-4.27L95.81-4.27Q95.53 0 91.64 0.14L91.64 0.14Q87.70 0 87.42-4.27L87.42-4.27Q87.66-8.72 91.64-8.81L91.64-8.81Q95.53-8.67 95.81-4.27ZM98.58-8.58L102.89-1.64L102.89-8.58L104.02-8.58L104.02 0L102.70 0L98.34-6.94L98.30-6.94L98.30 0L97.17 0L97.17-8.58L98.58-8.58ZM112.22-3.61L109.59-3.61L109.59-4.59L113.34-4.59L113.34 0L112.59 0L112.31-1.08Q111.33 0.09 109.50 0.14L109.50 0.14Q107.77 0.14 106.83-0.75L106.83-0.75Q105.42-2.06 105.47-4.36L105.47-4.36Q105.80-8.63 109.55-8.81L109.55-8.81Q112.73-8.63 113.20-6L113.20-6L112.08-6Q111.61-7.78 109.50-7.83L109.50-7.83Q106.83-7.64 106.69-4.31L106.69-4.31Q106.69-0.75 109.55-0.75L109.55-0.75Q110.58-0.75 111.33-1.31L111.33-1.31Q112.27-2.06 112.22-3.61L112.22-3.61ZM119.25-3.70L116.44-3.70L116.44 0L115.27 0L115.27-8.58L119.25-8.58Q122.11-8.58 122.11-6.28L122.11-6.28Q122.11-4.88 120.89-4.22L120.89-4.22Q121.92-3.94 121.92-2.58L121.92-2.58L122.02-1.03Q121.97-0.38 122.44-0.19L122.44-0.19L122.44 0L120.98 0Q120.84-0.61 120.80-2.16L120.80-2.16Q120.84-3.70 119.25-3.70L119.25-3.70ZM119.34-7.64L116.44-7.64L116.44-4.69L119.16-4.69Q120.89-4.69 120.89-6.19L120.89-6.19Q120.89-7.64 119.34-7.64L119.34-7.64ZM125.06-1.03L130.22-1.03L130.22 0L123.89 0L123.89-8.58L130.13-8.58L130.13-7.59L125.06-7.59L125.06-4.92L129.75-4.92L129.75-3.89L125.06-3.89L125.06-1.03ZM133.13-8.58L137.44-1.64L137.44-8.58L138.56-8.58L138.56 0L137.25 0L132.89-6.94L132.84-6.94L132.84 0L131.72 0L131.72-8.58L133.13-8.58Z" transform="translate(-0.515625, 8.8125)"></path></g></g></g></g></g><defs v-gra="od"></defs></svg>